<?xml version="1.0" encoding="utf-8"?>
<!-- Generator: Adobe Illustrator 25.0.0, SVG Export Plug-In . SVG Version: 6.00 Build 0)  -->
<svg version="1.1" xmlns="http://www.w3.org/2000/svg" xmlns:xlink="http://www.w3.org/1999/xlink" x="0px" y="0px"
	 viewBox="0 0 1057.47 756" style="enable-background:new 0 0 1057.47 756;" xml:space="preserve">
<style type="text/css">
	.st0{fill:#030303;}
</style>
<g id="Capa_1">
	<path class="st0" d="M1051.53,750.26c-345.46,0-690.91-0.03-1036.36,0.18c-8.08,0-10.37-1.74-10.37-10.21
		C4.96,586.76,4.78,433.3,4.53,279.83c-0.01-6.31,0.89-9.91,8.47-9.9c93.15,0.2,186.3,0.17,279.44,0.24c3.04,0,6.08,0.3,9.48,0.47
		c-0.13,4.34-3.37,4.57-5.67,5.55c-33.23,14-61.73,35.02-88.25,59.09c-20.6,18.7-39.95,38.41-57.48,60.16
		c-18.41,22.84-28.17,49.22-35.61,76.69c-9.29,34.32-13.84,69.3-7.6,104.78c9.55,54.28,40.89,92.86,88.27,118.98
		c66.06,36.42,137.43,43.92,211.45,39c58.99-3.92,115.25-18.53,169.91-39.64c35.18-13.59,69.36-29.77,103.89-45.02
		c53.98-23.84,108.35-46.75,165.8-61.01c35.51-8.81,71.64-14.56,108.3-15.75c23.6-0.77,45.81,7.08,68.76,12.1
		c-13.49,5.96-26.52,11.7-38.1,20.17c-19.62,14.35-37.27,30.35-45.83,54.12c-8.31,23.06-2.7,42.48,17.31,56.84
		c24.34,17.47,52.02,23.36,81.49,22.45c4.33-0.13,8.64-1.51,12.99-0.13C1051.53,742.76,1051.53,746.51,1051.53,750.26z"/>
	<g>
		<path class="st0" d="M958.61,183.79c-6.38,2.93-11.1,2.09-15.68,2.16c-59.07,0.98-118,3.5-176.31,14.15
			c-46.66,8.52-91.91,21.77-134.21,43.2c-58.74,29.77-116.68,61.06-171.41,97.96c-15.28,10.3-31.26,19.27-50.26,21.77
			c-27.53,3.61-44.37-4.05-57.15-28.54c-5.61-10.74-10.16-21.99-11.52-34.39c-2.05-18.82,4.33-27.99,22.73-32.64
			c24.22-6.13,48.87-10.35,72.91-17.34c33.13-9.64,62.54-26.1,90.2-46.34c27.96-20.47,54.97-42.19,80.41-65.61
			c17.74-16.34,33.23-35.14,48.15-54.29c17.85-22.91,32.08-48.04,46.72-72.99c-12.8,29.2-28.88,56.56-47.04,82.64
			c-18.52,26.59-38.13,52.4-60.38,76.04c-21.9,23.27-43.87,46.49-68.08,68.7C665.4,176.06,809.18,165.35,958.61,183.79z"/>
		<path class="st0" d="M245.36,541.18c10.09-2.47,15.32,4.74,19.91,10.39c8.2,10.07,17.02,19.65,24.01,30.88
			c5.34,8.58,6.08,16.71,2.62,24.76c-12.77,29.76-34.24,51.99-61.98,68.38c-12.36,7.3-24.09,4.39-35.23-2.66
			c-22.21-14.07-39.56-33.06-54.06-54.77c-4.51-6.74-8.69-13.63-10.62-21.72c-3.54-14.88-0.67-22.41,13-29.12
			c17.79-8.73,36.27-15.61,55.87-19.42C214.47,544.88,229.88,541.01,245.36,541.18z"/>
		<path class="st0" d="M149.43,552.1c-4.65-0.4-7.47-0.45-10.23-0.91c-12.9-2.14-16.66-6.59-15.64-19.54
			c3.19-40.68,16.94-77.9,38.09-112.47c3.51-5.74,8.77-10.55,13.76-15.21c9.94-9.3,21.54-8.14,32.21-2.37
			c26.14,14.12,46.49,34.4,60.75,60.62c1.92,3.54,1.92,7.15,0.73,10.88c-4.38,13.67-8.7,27.36-13.15,41.01
			c-3.57,10.96-13.29,14.47-22.74,17.6c-17.66,5.85-35.38,11.65-53.38,16.27C169.41,550.65,158.39,550.96,149.43,552.1z"/>
		<path class="st0" d="M363.92,595.43c14.92,0.8,30.04-1.13,44.74,2.98c7.42,2.08,12.08,6.12,11.43,14.59
			c-1.62,20.87-4.42,41.44-10.39,61.67c-6.8,23.09-21.57,34.9-45.22,36.25c-32.71,1.86-64.8-1.94-96.3-10.86
			c-4.23-1.2-8.22-3.06-11.4-6.23c-4.36-4.34-6.44-9.28-3.27-15.2c16.03-29.97,35.54-57.22,62.19-78.78
			c5.49-4.44,11.96-6.46,19.22-5.94C344.57,594.6,354.25,594.94,363.92,595.43z"/>
		<path class="st0" d="M285.22,440.06c-12.26,0.35-21.86-5.78-31.3-12.41c-16.77-11.77-31.06-25.79-39.8-44.62
			c-5.87-12.65-5.05-18.23,4.69-27.73c24.06-23.46,51.35-41.91,82.78-54.48c12.64-5.05,24.28,2.09,30.33,10.08
			c13.71,18.1,23.78,38.08,28.6,60.45c2.48,11.51-2.03,20.78-11.5,28.1c-12.07,9.32-23.54,19.42-35.01,29.48
			C305.67,436.24,296.3,440.34,285.22,440.06z"/>
		<path class="st0" d="M422.58,658.99c0.82-11.8,0.98-23.56,3.63-35.32c3.34-14.84,12.6-23.35,25.7-28.56
			c20.86-8.29,43.01-10.41,65.11-12.44c10.11-0.93,16.96,4.83,20.9,13.05c7.02,14.63,12.95,29.86,16.22,45.79
			c3.91,19.04-4.85,34.59-23.77,42.66c-27.26,11.63-56.38,16.22-85.38,20.73c-11.21,1.74-20.09-7.06-21.85-19.7
			C421.93,676.51,421.96,667.75,422.58,658.99z"/>
		<path class="st0" d="M791.99,590.26c-13.19,6.55-26.29,9.46-38.83,13.88c-50.02,17.66-99.74,36.01-146.76,60.89
			c-3.29,1.74-6.89,2.92-10.31,4.41c-7.97,3.49-14.21,1.44-19.95-5.03c-16.95-19.08-20.98-42.76-23.93-66.71
			c-1.12-9.13,4.85-13.68,13.5-14.54c12.11-1.21,24.24-2.25,36.37-3.23c40.11-3.26,80.27-3.82,120.48-2.5
			c22.47,0.73,44.4,4.46,66.02,10.32C789.4,587.98,790.06,588.81,791.99,590.26z"/>
	</g>
	<path class="st0" d="M458.38,224.78c-0.57,11.69-10.43,22.81-19.63,22.12c-11.42-0.85-20.2-10.98-19.42-22.42
		c0.65-9.59,11.71-17.49,23.39-16.7C453.22,208.49,458.87,214.62,458.38,224.78z"/>
</g>
<g id="Capa_3">
	<path class="st0" d="M400.27,566.56c-45.23-0.01-78.44-33.84-78.8-79.68c-0.36-46.53,37.44-81.86,79.95-80.39
		c44.24,1.53,77.76,34.58,77.98,80.02C479.61,532.97,446.41,566.56,400.27,566.56z M436.66,487.76
		c0.79-21.04-14.5-38.33-34.53-39.03c-20.04-0.7-37.04,15.9-38,37.11c-0.95,21.18,14.11,38.1,34.55,38.81
		C419.1,525.35,435.85,509.08,436.66,487.76z"/>
	<path class="st0" d="M256.2,239.38c-2.5,0.01-5,0.02-7.49,0.01c-15.44-0.08-15.7-0.01-19.42-14.75c-1.73-6.84-4.86-9.62-12.21-9.06
		c-10.25,0.79-20.59,0.51-30.88,0.49c-7.18-0.02-12.1,2.45-12.81,10.31c-0.91,10.09-6.86,13.57-16.41,13.08
		c-7.47-0.39-15,0.21-22.47-0.23c-10.08-0.59-10.83-1.84-7.4-11.2c16.2-44.1,32.81-88.05,48.5-132.33
		c3.58-10.11,7.42-15.62,19.02-12.19c4.31,1.27,9.56,1.22,13.93,0.07c9.79-2.57,14.04,1.82,17.41,10.3
		c17.31,43.68,34.9,87.25,50.93,131.42c4.6,12.67,3.55,13.94-10.39,14.06C263.07,239.4,259.64,239.38,256.2,239.38z M201.63,137.28
		c-3.51,9.98-6.26,17.52-8.82,25.12c-6.06,18.03-5.17,18.97,14.18,17.5c5.39-0.41,7.26-2.29,5.88-7.65
		C210.02,161.16,206.91,150.15,201.63,137.28z"/>
	<path class="st0" d="M850.96,555.52c-17.25-47.04-35.67-93.62-54.56-140.02c-2.03-4.98-5-7.79-10.58-6.89
		c-8.71,1.42-17.44,1.17-26.08-0.2c-5.02-0.79-7.4,0.99-8.99,5.63c-3.73,10.89-7.85,21.63-11.84,32.43
		c-13.14,35.61-26.34,71.19-39.41,106.83c-3.62,9.87-2.83,11.03,7.91,11.57c7.17,0.36,14.38-0.29,21.53,0.19
		c9.57,0.63,15.72-2.54,16.64-12.78c0.75-8.37,6.06-10.66,13.51-10.63c10.61,0.03,21.25,0.22,31.82-0.46
		c6.37-0.42,8.63,2.32,10.22,7.87c4.55,15.93,4.74,15.88,21.44,15.91h6.56l11.89-0.17c0,0,0,0-0.01-0.01
		c1.34-0.01,2.68-0.05,4.02-0.12C850.9,564.35,853.3,561.92,850.96,555.52z M779.13,505.53c-19.53,1.19-20.19,0.61-14-17.71
		c2.57-7.59,5.36-15.1,8.05-22.65c0.74-0.08,1.48-0.16,2.21-0.24c3.21,10.71,6.43,21.43,9.6,32.15
		C786.53,502.27,785.53,505.14,779.13,505.53z"/>
	<path class="st0" d="M624.31,412.4c20.96,0.58,41.84-1.16,62.74-1.97c6.58-0.26,8.97,1.58,8.25,8.23
		c-0.54,4.93-0.98,10.21,0.21,14.92c2.53,10.05-1.93,11.57-10.55,11.24c-7.66-0.3-17.42-3.47-22.56,1.39
		c-4.81,4.56-1.35,14.25-1.76,21.67c-1.53,28.1,0.99,56.12,1.74,84.17c0.31,11.58-0.06,13.08-11.47,13.57
		c-9.34,0.4-18.72-0.3-28.08-0.22c-6.04,0.05-8.17-2.53-7.91-8.53c0.79-17.77,1.44-35.56,1.67-53.34
		c0.22-17.48-0.26-34.97-0.16-52.46c0.03-4.91-1.21-6.4-6.45-5.78c-8.34,0.99-16.83,0.74-25.24,1.26c-4.4,0.27-5.29-1.45-4.56-5.5
		c1.55-8.58,2.9-17.21,3.98-25.87c0.62-5,3.77-4.85,7.42-4.63C602.49,411.22,613.4,411.79,624.31,412.4z"/>
	<path class="st0" d="M523.62,512.01c-0.91-7.48-4.96-12.64-9.2-17.68c-5.61-6.67-12.12-12.61-15.91-20.7
		c-8.78-18.72-4.07-38.5,12.18-51.1c10.61-8.23,22.83-12.61,35.77-15.37c5.25-1.12,8.61,0.15,10.66,5.89
		c2.82,7.89,6.77,15.38,10.32,23.01c2.16,4.65,1.39,7.13-4.34,6.67c-2.47-0.2-5.02-0.28-7.47,0.09
		c-15.13,2.27-19.51,11.91-10.92,24.45c4.05,5.91,8.71,11.41,13.2,17.01c18.33,22.84,16.51,47.72-5.1,67.27
		c-10.93,9.89-24.02,15.49-38.3,18.46c-4.44,0.92-8.07,0.6-10.41-4.72c-3.38-7.68-7.87-14.87-11.89-22.26
		c-3.49-6.43-3.31-10.87,5.47-12.02c6.15-0.81,12.15-2.55,17.63-5.8C520.63,522.06,522.9,517.22,523.62,512.01z"/>
	<path class="st0" d="M122.14,207.86c-0.79,8.37-1.73,16.74-2.39,25.13c-0.42,5.34-2.67,7.42-8.33,7.28
		c-15.31-0.39-30.63-0.14-45.95-0.14l-39.29-1.52c-1.89,0.02-3.78,0.05-5.67,0.09c-6.42,0.13-8.86-2.01-8.67-8.66
		c1.32-46.24,0.57-92.48-0.37-138.72c-0.13-6.64,1.83-9.05,8.5-8.2c9.63,1.22,19.34,1.24,28.98-0.05c6.9-0.92,9.27,1.2,8.78,8.6
		c-2.22,33.68-3.02,67.41-2.77,101.18c0.05,7.04,1.35,9.91,9.27,9.36c16.82-1.18,33.72-1.01,50.56-1.87
		C120.82,200.03,122.65,202.47,122.14,207.86z"/>
</g>
</svg>
